<svg width="245" height="206" viewBox="0 0 245 206" fill="none" xmlns="http://www.w3.org/2000/svg">
<path d="M244.471 141.696C244.942 139.959 243.944 137.708 241.576 137.428C239.18 137.143 236.774 137.006 234.368 136.831C223.346 105.619 213.851 74.0064 203.737 42.5056C204.571 42.3663 205.404 42.1471 206.232 41.8196C210.58 40.1005 213.716 36.1859 214.7 31.8304C222.904 30.555 231.116 29.2918 239.343 28.0165C242.322 27.5549 241.592 22.7056 238.638 22.7954C230.404 23.0434 222.212 23.5953 214.054 24.3953C213.833 23.8727 213.663 23.3387 213.359 22.8328C210.055 17.3372 201.025 14.5298 195.573 18.4117C191.696 19.3457 188.975 23.3663 188.379 27.6878C172.635 30.1286 156.987 33.2588 141.377 36.6739C141.021 29.5801 136.505 22.9836 130.157 20.5175C129.867 15.7321 129.609 10.9432 129.239 6.1699C128.611 -1.94026 116.535 -2.17219 116.445 6.1699C116.391 11.071 116.439 15.9663 116.419 20.8663C115.263 21.2162 114.167 21.7088 113.192 22.3378C106.93 26.3757 104.661 34.7764 106.551 41.7206C106.808 42.6627 107.218 43.4909 107.61 44.3323C91.4561 48.0496 75.2888 51.6799 59.0592 54.8458C57.3005 52.6353 54.5363 50.85 51.5821 49.9747C45.7038 46.1383 38.4592 52.7406 36.7413 58.8031C30.5258 59.7929 24.3062 60.7454 18.0601 61.4953C15.0156 61.8619 14.8458 66.2341 18.0601 66.3699C24.343 66.6352 30.6259 66.3596 36.9059 65.8468C37.7859 68.4257 39.5262 70.6374 41.7207 72.2246C28.569 102.234 20.1003 135.924 11.8094 167.48C8.82654 167.296 5.8563 167.163 2.86478 166.944C-0.268904 166.715 -1.04988 171.441 1.61763 172.561C5.43618 185.565 25.5009 190.96 36.7407 192.137C56.0453 194.157 74.6948 188.457 90.7885 177.981C95.2436 175.081 91.5194 168.225 87.1133 170.127C86.8825 170.121 86.6517 170.116 86.4192 170.109C75.3613 138.579 66.4396 104.665 51.5355 74.7794C51.4452 74.5986 51.3047 74.5296 51.1701 74.4553C51.3985 74.4151 51.6236 74.4254 51.8538 74.3702C57.3252 73.0603 61.0597 67.8317 61.3734 62.4276C78.5387 59.1311 95.6079 54.4257 112.442 50.4276C113.661 51.3772 114.953 52.2226 116.363 52.843C116.578 96.5292 117.253 140.188 116.044 183.922C102.015 184.22 88.5751 188.2 80.3585 197.132C79.9383 197.396 79.6287 197.708 79.4135 198.151C79.2195 198.384 78.9847 198.58 78.7965 198.818C77.2887 200.736 79.0118 203.149 81.2695 202.322C87.8062 206.862 104.993 204.532 111.268 204.697C129.183 205.168 147.105 205.359 165.022 205.689C169.355 205.769 170.548 200.025 167.149 197.838C155.837 190.567 143.148 183.904 130.146 183.396C131.56 140.103 132.862 96.3934 131.64 52.9351C134.847 51.4911 137.66 49.0665 139.52 45.5225C139.673 45.2313 139.729 44.9262 139.863 44.6316C156.562 41.3437 173.285 38.4574 190.048 35.7353C191.419 38.0978 193.461 39.9647 195.817 41.1825C184.146 72.2413 176.499 105.355 166.466 136.98C162.872 137.359 159.323 137.957 155.863 138.94C154.573 139.305 154.355 140.941 155.211 141.757C154.96 152.518 175.451 158.707 183.25 160.042C204.001 163.598 224.361 155.175 243 147.084C245.223 146.12 245.401 143.618 244.471 141.696ZM78.7447 169.921C58.9499 169.437 39.3231 168.985 19.591 167.946C28.6703 137.072 39.7553 105.833 46.7996 74.4692C47.9219 74.6832 49.0896 74.6832 50.2711 74.5681C49.9983 74.7828 49.7923 75.097 49.8648 75.4844C55.8571 107.41 68.6767 138.945 78.7447 169.921ZM200.294 47.8901C206.373 78.0034 215.661 107.524 226.121 136.388C216.184 136.076 206.21 136.332 196.287 136.498C188.967 136.62 181.415 136.263 173.953 136.498C183.053 107.4 193.788 77.7657 200.294 47.8901Z" fill="white"/>
</svg>
