<?xml version="1.0" encoding="UTF-8" standalone="no"?> <svg id="Layer_1" data-name="Layer 1" xmlns="http://www.w3.org/2000/svg" viewBox="0 0 128 128"><defs><style>.cls-1{fill:#1d75b8;}.cls-2{fill:#2d3e50;}</style></defs><title>v</title><path class="cls-1" d="M101.50249,60.43736,76.63443,65.89595V93.5006a18.879,18.879,0,0,0,5.16093,13.02905,73.02993,73.02993,0,0,0,18.54708,14.24876l1.16006.6245,1.16011-.6245a72.84512,72.84512,0,0,0,18.56188-14.24876,18.879,18.879,0,0,0,5.161-13.02905V65.89595Z"/><path class="cls-2" d="M71.34532,61.64129l30.15723-6.62419.49394.10584V40.137l6.43011,3.343a5.08356,5.08356,0,0,0,2.85783.882,5.12671,5.12671,0,0,0,3.03425-9.27034l-.13227-.097L61.88973,7.48356a5.09257,5.09257,0,0,0-5.74214,0L3.851,34.99465l-.13233.097a5.12644,5.12644,0,0,0,5.89213,8.38829l6.43011-3.343v57.0597a2.86469,2.86469,0,0,0,2.86666,2.85783H72.23619a24.27506,24.27506,0,0,1-.89088-6.55361Z"/></svg>