<?xml version="1.0" encoding="UTF-8" standalone="no"?> <svg id="Layer_1" data-name="Layer 1" xmlns="http://www.w3.org/2000/svg" viewBox="0 0 128 128"><defs><style>.cls-1{fill:#1d75b8;}.cls-2{fill:#2d3e50;}</style></defs><title>a</title><path class="cls-1" d="M50.89759,86.55969H77.1024a2.09168,2.09168,0,0,0,0-4.18336H50.89759a2.09168,2.09168,0,0,0,0,4.18336Z"/><path class="cls-1" d="M50.89759,96.9213H64.30595a2.09168,2.09168,0,0,0,0-4.18335H50.89759a2.09168,2.09168,0,0,0,0,4.18335Z"/><path class="cls-1" d="M83.00591,65.59828a4.05578,4.05578,0,0,0-2.18574-2.94352c-3.8006-1.89519-12.1406-4.69417-12.1406-4.69417V55.20688l.23216-.1752A7.96774,7.96774,0,0,0,71.937,49.9681l.04672-.29348H72.21A3.07787,3.07787,0,0,0,75.05867,47.759a3.35176,3.35176,0,0,0,.419-1.62361,3.08388,3.08388,0,0,0-.219-1.14178,1.5925,1.5925,0,0,0-.61761-.99286l-.76947-.46722.19127-.83516c1.39-6.05935-3.30417-11.51716-9.60735-11.66755-.15331-.00292-.30515-.00437-.45555-.00146-.15039-.00291-.30224-.00146-.45555.00146-6.30318.15039-10.99735,5.6082-9.60735,11.66755l.19127.83516-.76947.46722a1.5925,1.5925,0,0,0-.61761.99286,3.08388,3.08388,0,0,0-.219,1.14178,3.35176,3.35176,0,0,0,.419,1.62361A3.07787,3.07787,0,0,0,55.79,49.67462h.22631l.04672.29348a7.96774,7.96774,0,0,0,3.02529,5.06358l.23216.1752v2.75372s-8.34,2.799-12.1406,4.69417a4.05578,4.05578,0,0,0-2.18574,2.94352,88.30937,88.30937,0,0,0-.76654,10.21183h39.5449A88.30937,88.30937,0,0,0,83.00591,65.59828Z"/><path class="cls-2" d="M101.80236,106.44012l-.428-91.64368A13.106,13.106,0,0,0,88.28062,1.70269H39.71938A13.106,13.106,0,0,0,26.6256,14.79645l-.428,91.64368c0,.03823-.00509.07644-.00509.11465v6.03739a13.96386,13.96386,0,0,0,13.52683,13.70515H88.28062a13.96386,13.96386,0,0,0,13.52683-13.70515v-6.03739C101.80745,106.51656,101.80236,106.47835,101.80236,106.44012ZM64,105.76507H33.05835L33.41492,22.184H94.58508l.35658,83.58109Z"/></svg>