<?xml version="1.0" encoding="UTF-8" standalone="no"?> <svg id="Layer_1" data-name="Layer 1" xmlns="http://www.w3.org/2000/svg" viewBox="0 0 128 128"><defs><style>.cls-1{fill:#2d3e50;}.cls-2{fill:#1d75b8;}</style></defs><title>b</title><path class="cls-1" d="M115.54158,63.01678a32.11719,32.11719,0,0,0-52.52132,10.8058l-46.89043.2403-5.39369,5.39369,30.57828-.4282a2.465,2.465,0,0,1,.00154,4.93l-35.50829.42667-2.736,2.736,8.71773,8.71773,48.59927-.18656c.01229,0,.023.00154.03532.00153a2.74024,2.74024,0,0,1,2.518,1.74109,32.10049,32.10049,0,1,0,52.59962-34.37806ZM98.62968,92.42643a8.49744,8.49744,0,1,1,12.0172.00154A8.50682,8.50682,0,0,1,98.62968,92.42643Z"/><path class="cls-2" d="M51.46143,39.22729a19.84333,19.84333,0,0,0-4.23285-2.83388A48.15294,48.15294,0,0,0,41.921,34.10913q-1.88952-.65337-3.22374-1.2078a14.33943,14.33943,0,0,1-2.24658-1.14081,3.89873,3.89873,0,0,1-1.33511-1.33511,3.57115,3.57115,0,0,1-.42313-1.79061,3.27746,3.27746,0,0,1,1.36749-2.7354,7.531,7.531,0,0,1,4.49317-1.04168,26.56854,26.56854,0,0,1,5.95872.65088,30.14682,30.14682,0,0,1,4.982,1.5631l2.01907-7.8145a25.80443,25.80443,0,0,0-3.8749-1.3025,36.60782,36.60782,0,0,0-5.82875-.97692V10.20513H35.604v7.03323A16.4012,16.4012,0,0,0,30.65479,18.899a11.056,11.056,0,0,0-3.38651,2.76754,10.93991,10.93991,0,0,0-1.92105,3.61407,13.81458,13.81458,0,0,0-.61874,4.13573,9.96943,9.96943,0,0,0,3.67971,8.14008,16.92024,16.92024,0,0,0,3.71162,2.3118q2.05193.94476,4.20048,1.72586,2.21351.78171,3.90723,1.465a16.8417,16.8417,0,0,1,2.80061,1.40028,5.74415,5.74415,0,0,1,1.69307,1.59547,3.73014,3.73014,0,0,1,.58589,2.11666,3.53637,3.53637,0,0,1-1.465,3.02813q-1.465,1.07449-5.43795,1.07428a23.92786,23.92786,0,0,1-6.675-.91152,34.2248,34.2248,0,0,1-5.43753-2.0186L23.4914,56.83276A44.38514,44.38514,0,0,0,27.887,58.62342a30.45735,30.45735,0,0,0,7.717,1.4655v7.74928h8.20525V59.89332A17.19489,17.19489,0,0,0,49.182,58.20114a11.95836,11.95836,0,0,0,3.54932-2.79926,10.03053,10.03053,0,0,0,1.95338-3.54708,13.19445,13.19445,0,0,0,.58641-3.87266A11.682,11.682,0,0,0,54.26158,42.97,11.55165,11.55165,0,0,0,51.46143,39.22729Z"/></svg>