<?xml version="1.0" encoding="UTF-8" standalone="no"?> <svg id="Layer_1" data-name="Layer 1" xmlns="http://www.w3.org/2000/svg" viewBox="0 0 128 128"><defs><style>.cls-1{fill:#2d3e50;}.cls-2{fill:#1d75b8;}</style></defs><title>b</title><path class="cls-1" d="M82.23672,48.08315a4.44367,4.44367,0,0,0-1.85674-.3611l-13.74437.7076L56.23045,35.95534a7.94311,7.94311,0,0,0-.75456-.7842c-.0485-.04041-.10239-.07814-.15359-.11588a6.3466,6.3466,0,0,0-2.14778-1.03211c-.04041-.01079-.08354-.02156-.124-.03235a7.50341,7.50341,0,0,0-1.00247-.20211c-2.711-.36649-5.43007-.68718-8.14375-1.02941a2.19018,2.19018,0,0,0-2.28792,1.06984c-1.22075,1.881-2.47384,3.74311-3.71615,5.61062-.71682,1.07523-1.439,2.14508-2.23132,3.3281-.01077-.01347-.01617-.02424-.02694-.03772a.32645.32645,0,0,1-.02694.03772c-.79228-1.183-1.51449-2.25287-2.23132-3.3281-1.24231-1.86751-2.49541-3.72964-3.71615-5.61062a2.19015,2.19015,0,0,0-2.2879-1.06984c-.97552.124-1.95375.24252-2.932.36379-1.73816.21558-3.47633.43117-5.21179.66561a7.60533,7.60533,0,0,0-1.722.43388.22736.22736,0,0,1-.03234.01077,6.69054,6.69054,0,0,0-3.64071,2.99125,6.43349,6.43349,0,0,0-.36919.733L6.28191,54.82717l-.256.601a4.67568,4.67568,0,0,0-.08622,3.45207l.73568,2.01033,5.81811,15.91024a4.56667,4.56667,0,0,0,5.519,2.8107,4.5493,4.5493,0,0,0,3.12868-5.61871l-1.39322-4.8884L16.60308,58.05558,19.306,53.76c.01617.3072.02964.60634.03773.90546.02694.98362.05658,1.96722.08354,2.95083.02694.91893.0512,1.83517.07545,2.7541l3.71078,13.03216a6.70789,6.70789,0,0,1-1.6654,6.53226,6.54144,6.54144,0,0,1-1.46329,1.12643q.34763,12.52283.69525,25.043c.08086,2.92388.19943,7.42423.30452,11.21045a9.031,9.031,0,0,0,8.963,8.78243l5.59445.04041,5.59445-.04041a9.031,9.031,0,0,0,8.963-8.78243c.1051-3.78622.22366-8.28658.30452-11.21045q.71546-25.71669,1.43633-51.43877c.02426-.85425.08086-2.52235.14553-3.89132,0,0,7.22212,7.17092,9.2136,8.78243A6.21753,6.21753,0,0,0,62.636,60.392a4.45666,4.45666,0,0,0,.96745.01077l17.2993-3.75005a4.47541,4.47541,0,0,0,1.33394-8.56955Z"/><path class="cls-1" d="M26.24436,20.84784a9.57354,9.57354,0,0,0,18.79566,0l1.46039-7.53916A10.0857,10.0857,0,0,0,36.50514,1.86244H34.77924A10.0857,10.0857,0,0,0,24.784,13.30868Z"/><path class="cls-2" d="M90.38482,78.53294l-1.286.47516L93.172,94.84671a1.51881,1.51881,0,0,0,2.94191-.75649L92.73439,80.948a18.39068,18.39068,0,0,1,10.8648,0l-3.379,13.14219a1.51881,1.51881,0,1,0,2.94191.75649l4.07269-15.83861-1.286-.47516A21.87215,21.87215,0,0,0,90.38482,78.53294Z"/><path class="cls-2" d="M122.0185,79.22163a18.28085,18.28085,0,0,0-.58733-2.49611A24.31234,24.31234,0,0,0,98.65249,60.13391h-.1924c-.0962,0-.1924,0-.29367.00507-.09617-.00507-.19237-.00507-.28857-.00507h-.1924A24.30734,24.30734,0,0,0,74.90678,76.72552a18.22682,18.22682,0,0,0-.5924,2.49611A20.76391,20.76391,0,0,0,75.646,91.0793c.05065.12151.10634.243.162.35946,2.84037,6.22251,8.435,14.55125,10.835,20.313a1.95488,1.95488,0,0,0,1.80751,1.19994h19.437a1.95492,1.95492,0,0,0,1.80751-1.19994c2.39988-5.76176,7.99458-14.09049,10.835-20.313.05569-.11644.1063-.23795.157-.35946A20.72111,20.72111,0,0,0,122.0185,79.22163Zm-5.28076,10.15142-.00507.01517c-.04051.08609-.076.17216-.11647.26329-1.2607,2.75937-3.19479,6.13135-5.06809,9.392-1.8784,3.27074-3.80743,6.63766-5.18963,9.60463H89.9744c-1.37714-2.967-3.30616-6.33389-5.18456-9.60463-1.87334-3.26061-3.8074-6.63259-5.07316-9.397-.03545-.08606-.076-.17213-.12154-.27339a16.44453,16.44453,0,0,1-1.043-9.4021,14.23759,14.23759,0,0,1,.43038-1.87334A19.9975,19.9975,0,0,1,97.68546,64.43751l.486.00507.44555-.00507a20.00347,20.00347,0,0,1,18.7333,13.655,13.29834,13.29834,0,0,1,.43038,1.88347A16.34736,16.34736,0,0,1,116.73774,89.37305Z"/><path class="cls-2" d="M108.106,115.49411H88.23064a.887.887,0,0,0-.87157,1.05146l.94781,5.02171a.887.887,0,0,0,.87157.72247h2.26382a7.80254,7.80254,0,0,0,13.45211,0h2.26382a.887.887,0,0,0,.87157-.72247l.94781-5.02171A.887.887,0,0,0,108.106,115.49411Z"/></svg>